# xmcd
#
# Track frame offsets: 
#        150
#        17745
#        42958
#        55455
#        75563
#        96605
#        112281
#        131876
#        153846
#        171688
#        195867
#        218036
#        236984
#        255968
#        270252
#        285337
#        297375
#        317562
#        326429
#        338084
#
# Disc length: 4796 seconds
#
# Revision: 0
# Processed by: cddbd v1.5.2PL0 Copyright (c) Steve Scherf et al.
# Submitted via: ExactAudioCopy v1.0b1
#
DISCID=2612ba14
DTITLE=Air Guitar - Air Guitar Heroes
DYEAR=2009
DGENRE=Rock
TTITLE0=Iron Maiden - Run to the hills
TTITLE1=Deep Purple - Smoke on the water
TTITLE2=Motorhead - Ace of spades
TTITLE3=David Bowie- Rebel rebel
TTITLE4=Iggy Pop - The passenger
TTITLE5=Steppen Wolf- Born to be wild
TTITLE6=Lynyrd Skynyrd - Sweet home Alabama
TTITLE7=The Knack - My Sharona
TTITLE8=Ram Jam - Black Betty
TTITLE9=Muddy waters- Mannish boy
TTITLE10=George Thorogood and the destroyers-Bad to the bone
TTITLE11=The Scorpions -  Rock you like a hurricane
TTITLE12=Free- All right now
TTITLE13=Canned heat - On the road again
TTITLE14=Dr Feelgood - He does it right
TTITLE15=Buzzcocks - ever fallen in love
TTITLE16=The Animals  - The house of the rising sun
TTITLE17=Eddy Cochrane- Summertime blues
TTITLE18=The Troggs - Wild thing
TTITLE19=Bill Idol - Rebel Yell
EXTD=
EXTT0=
EXTT1=
EXTT2=
EXTT3=
EXTT4=
EXTT5=
EXTT6=
EXTT7=
EXTT8=
EXTT9=
EXTT10=
EXTT11=
EXTT12=
EXTT13=
EXTT14=
EXTT15=
EXTT16=
EXTT17=
EXTT18=
EXTT19=
PLAYORDER=
